<?xml version="1.0" encoding="UTF-8" standalone="no"?>
<!DOCTYPE svg PUBLIC "-//W3C//DTD SVG 1.1//EN" "http://www.w3.org/Graphics/SVG/1.1/DTD/svg11.dtd">
<svg width="100%" height="100%" viewBox="0 0 789 851" version="1.1" xmlns="http://www.w3.org/2000/svg" xmlns:xlink="http://www.w3.org/1999/xlink" xml:space="preserve" xmlns:serif="http://www.serif.com/" style="fill-rule:evenodd;clip-rule:evenodd;stroke-linejoin:round;stroke-miterlimit:2;">
    <g transform="matrix(1,0,0,1,-4276.606924,-3482.490699)">
        <path d="M5065.465,4332.737C5012.845,4332.627 4960.226,4332.462 4907.607,4332.41C4899.453,4332.402 4891.301,4331.008 4877.229,4329.714L4877.229,4202.287C4814.808,4202.287 4758.294,4202.287 4698.26,4202.715C4686.11,4215.206 4637.896,4300.94 4623.368,4329.857L4276.607,4329.857L4694.467,3482.512L4738.489,3482.512C4795.499,3482.512 4929.751,3482.49 5056.827,3482.491L5065.465,4332.737ZM4822.258,3956.684L4873.582,3956.684L4873.582,3843.08C4856.383,3878.914 4822.257,3953.956 4822.258,3956.684Z" style="fill:rgb(255,253,242);"/>
    </g>
</svg>
